<?xml version="1.0" encoding="UTF-8"?>
<svg version="1.1" xmlns="http://www.w3.org/2000/svg" width="512" height="512">
<path d="M0 0 C1.15629349 -0.00507454 2.31258698 -0.01014909 3.50391966 -0.0153774 C4.78015477 -0.01587516 6.05638989 -0.01637292 7.37129879 -0.01688576 C8.73619602 -0.02090035 10.10109207 -0.02533856 11.46598667 -0.03016531 C15.22522414 -0.04213733 18.98444877 -0.04778073 22.74370158 -0.05234647 C26.79501127 -0.05830027 30.8463056 -0.06991075 34.89760494 -0.08063698 C44.68661928 -0.10516737 54.47563871 -0.11978973 64.26467434 -0.13269705 C67.0295134 -0.13640873 69.79435195 -0.14038198 72.55919051 -0.14444971 C89.72757832 -0.16968764 106.89596693 -0.19174132 124.0643692 -0.20417786 C128.04175539 -0.20710757 132.01914155 -0.21006923 135.99652767 -0.21308327 C136.98509217 -0.21382932 137.97365666 -0.21457537 138.99217766 -0.21534403 C155.00287166 -0.22799501 171.01345455 -0.26121408 187.02409662 -0.3028851 C203.461401 -0.34531587 219.89864853 -0.36887428 236.33600754 -0.37409842 C245.565138 -0.3775114 254.79409487 -0.38925316 264.02317142 -0.42220116 C271.88407502 -0.45021863 279.74476945 -0.4611936 287.6057191 -0.4500057 C291.61514857 -0.44482321 295.62414012 -0.4476786 299.63350582 -0.47247124 C303.30847847 -0.49500589 306.98269969 -0.49419205 310.65768587 -0.47526737 C312.60766749 -0.47115557 314.55765396 -0.49158209 316.50752169 -0.51305425 C324.22672625 -0.44357476 330.01383046 0.76294376 336.47382259 5.13701439 C338.72772884 7.48857689 338.72772884 7.48857689 340.03632259 9.76201439 C340.49136166 10.51740501 340.94640072 11.27279564 341.41522884 12.05107689 C343.55752486 16.27242772 343.63940073 20.03968744 343.66669369 24.66264915 C343.67487118 25.42730995 343.68304867 26.19197075 343.69147396 26.97980309 C343.71630037 29.51266774 343.73284147 32.04547622 343.74726009 34.57842064 C343.75258377 35.4457929 343.75790745 36.31316517 343.76339245 37.20682144 C343.79011863 41.80243991 343.80949078 46.39803134 343.82392025 50.99370384 C343.83723062 54.78529198 343.86502987 58.57633825 343.9059515 62.36772728 C343.95546274 66.9553951 343.98006446 71.54257343 343.98714733 76.13049698 C343.99383104 77.87229759 344.00897745 79.61408853 344.03303814 81.35573578 C344.26690258 99.31631577 344.26690258 99.31631577 338.47382259 107.13701439 C336.12226009 109.39092064 336.12226009 109.39092064 333.84882259 110.69951439 C333.09343197 111.15455345 332.33804134 111.60959251 331.55976009 112.07842064 C327.88040712 113.94565782 325.01689729 114.26456352 320.94764519 114.27402878 C319.21320496 114.28164059 319.21320496 114.28164059 317.44372553 114.28940618 C316.16749041 114.28990394 314.8912553 114.29040169 313.5763464 114.29091454 C312.21144916 114.29492912 310.84655312 114.29936734 309.48165852 114.30419409 C305.72242105 114.31616611 301.96319641 114.32180951 298.20394361 114.32637525 C294.15263391 114.33232905 290.10133958 114.34393953 286.05004025 114.35466576 C276.26102591 114.37919615 266.47200647 114.39381851 256.68297085 114.40672582 C253.91813179 114.4104375 251.15329323 114.41441076 248.38845468 114.41847849 C231.22006686 114.44371642 214.05167826 114.4657701 196.88327599 114.47820663 C192.9058898 114.48113635 188.92850364 114.48409801 184.95111752 114.48711205 C183.96255302 114.4878581 182.97398852 114.48860415 181.95546753 114.4893728 C165.94477352 114.50202379 149.93419064 114.53524286 133.92354857 114.57691388 C117.48624418 114.61934465 101.04899666 114.64290305 84.61163765 114.6481272 C75.38250719 114.65154018 66.15355031 114.66328194 56.92447376 114.69622993 C49.06357016 114.72424741 41.20287574 114.73522238 33.34192609 114.72403447 C29.33249661 114.71885199 25.32350507 114.72170738 21.31413937 114.74650002 C17.63916672 114.76903467 13.9649455 114.76822082 10.28995932 114.74929614 C8.3399777 114.74518435 6.38999123 114.76561087 4.4401235 114.78708303 C-3.27908106 114.71760354 -9.06618527 113.51108502 -15.52617741 109.13701439 C-17.78008366 106.78545189 -17.78008366 106.78545189 -19.08867741 104.51201439 C-19.54371647 103.75662376 -19.99875553 103.00123314 -20.46758366 102.22295189 C-22.60987968 98.00160106 -22.69175555 94.23434134 -22.7190485 89.61137962 C-22.72722599 88.84671883 -22.73540348 88.08205803 -22.74382877 87.29422569 C-22.76865518 84.76136104 -22.78519629 82.22855255 -22.79961491 79.69560814 C-22.80493858 78.82823587 -22.81026226 77.96086361 -22.81574726 77.06720734 C-22.84247344 72.47158887 -22.86184559 67.87599744 -22.87627506 63.28032494 C-22.88958543 59.4887368 -22.91738468 55.69769053 -22.95830631 51.9063015 C-23.00781756 47.31863368 -23.03241927 42.73145535 -23.03950214 38.1435318 C-23.04618586 36.40173118 -23.06133226 34.65994025 -23.08539295 32.918293 C-23.31925739 14.95771301 -23.31925739 14.95771301 -17.52617741 7.13701439 C-15.17461491 4.88310814 -15.17461491 4.88310814 -12.90117741 3.57451439 C-11.76809147 2.8919558 -11.76809147 2.8919558 -10.61211491 2.19560814 C-6.93276193 0.32837095 -4.0692521 0.00946526 0 0 Z " fill="#A2D3E9" transform="translate(95.52617740631104,198.8629856109619)"/>
<path d="M0 0 C7.91720085 4.92395109 10.58225709 11.1691827 12.8125 19.9375 C17.9023114 38.0682178 25.8588007 54.71052506 37.625 69.4375 C38.35203125 70.38367188 39.0790625 71.32984375 39.828125 72.3046875 C71.89038546 113.01683837 123.1567768 135.13864712 173.59375 141.54296875 C183.21817907 142.6793229 192.81777901 142.83489004 202.5 142.8125 C203.39241394 142.81195618 204.28482788 142.81141235 205.20428467 142.81085205 C236.39872762 142.72394783 265.85922758 136.53775811 294.625 124.4375 C295.36943359 124.12586914 296.11386719 123.81423828 296.88085938 123.49316406 C313.85825043 116.2597851 332.40477605 106.04023159 345.34375 92.66015625 C346.625 91.4375 346.625 91.4375 348.625 91.4375 C348.20347656 90.90382813 347.78195312 90.37015625 347.34765625 89.8203125 C343.18680226 84.16155107 341.13262196 79.53690427 341.625 72.4375 C343.05993809 65.3002427 346.87521567 61.33528554 352.83984375 57.21875 C354.07592247 56.45054462 355.3171372 55.69056149 356.5625 54.9375 C357.23837158 54.52242188 357.91424316 54.10734375 358.6105957 53.6796875 C360.94236949 52.25484482 363.28258203 50.84477367 365.625 49.4375 C366.55376953 48.87804687 367.48253906 48.31859375 368.43945312 47.7421875 C371.39316901 45.96722124 374.35160287 44.20045821 377.3125 42.4375 C378.72873657 41.59155273 378.72873657 41.59155273 380.17358398 40.72851562 C381.51658569 39.93477539 381.51658569 39.93477539 382.88671875 39.125 C383.68037842 38.65449219 384.47403809 38.18398438 385.29174805 37.69921875 C390.82970682 34.70453727 395.37782733 33.60315307 401.625 34.4375 C408.26809296 36.52906415 412.40843099 40.35944581 415.7253418 46.46191406 C417.0885508 50.97067698 417.04585518 55.4213728 417.14453125 60.109375 C417.17101242 61.14636536 417.19749359 62.18335571 417.22477722 63.25177002 C417.27738513 65.44377636 417.32498257 67.63590791 417.36791992 69.828125 C417.43697607 73.16220421 417.53303727 76.49478145 417.63085938 79.828125 C417.67873862 81.96350519 417.72501424 84.09892207 417.76953125 86.234375 C417.81615654 87.71608185 417.81615654 87.71608185 417.86372375 89.22772217 C417.97372047 96.75793928 417.15839074 103.37076384 412.25 109.3125 C406.80184198 113.72291364 402.63581435 115.36497433 395.625 115.4375 C394.42875 115.14875 393.2325 114.86 392 114.5625 C388.72851738 114.09327983 388.72851738 114.09327983 386.91796875 115.6796875 C385.8034346 116.8118328 384.723758 117.97994495 383.69140625 119.1875 C370.877305 133.14009418 354.01163059 144.18331417 337.625 153.4375 C336.82787598 153.8922168 336.03075195 154.34693359 335.20947266 154.81542969 C306.97660942 170.75882489 275.68709032 180.83875369 243.625 185.4375 C242.43471191 185.61482666 241.24442383 185.79215332 240.01806641 185.97485352 C228.7181087 187.54751103 217.49545035 187.77746169 206.09814453 187.75317383 C203.0246997 187.7500253 199.95223232 187.77353225 196.87890625 187.79882812 C178.89999906 187.85646319 161.21091298 185.99132378 143.625 182.1875 C142.64337891 181.97697998 141.66175781 181.76645996 140.65039062 181.54956055 C98.66911113 172.23119188 58.71221016 153.14510599 27.109375 123.734375 C24.97157727 121.7579205 22.791016 119.87195344 20.5625 118 C-4.94539202 95.64825689 -28.99031299 56.74585482 -32.6875 22.546875 C-32.95930356 16.32936861 -32.15005209 11.48194095 -28.375 6.4375 C-20.90214437 -1.51347672 -10.38721737 -4.66324017 0 0 Z " fill="#D36E7F" transform="translate(53.375,313.5625)"/>
<path d="M0 0 C1.47988655 -0.01058945 1.47988655 -0.01058945 2.9896698 -0.02139282 C43.81514208 -0.24727709 43.81514208 -0.24727709 61.3671875 3.203125 C62.40359375 3.39648438 63.44 3.58984375 64.5078125 3.7890625 C89.14504025 8.4736058 112.8720219 16.09007659 135.3671875 27.203125 C136.0360498 27.53135254 136.70491211 27.85958008 137.39404297 28.19775391 C156.21316339 37.5433035 173.51166757 49.60131166 188.8828125 63.90625 C191.02061023 65.8827045 193.2011715 67.76867156 195.4296875 69.640625 C221.29265426 92.30350865 244.11467279 130.42871735 248.71484375 164.80078125 C249.11774018 171.4847297 247.33079768 176.81001606 243.3671875 182.203125 C238.34665547 187.16328992 233.07693503 189.10053686 226.078125 189.375 C219.71053604 188.97129119 213.75328842 186.95473433 209.3671875 182.203125 C206.17008745 177.32653568 204.2988539 172.21086195 202.79858398 166.59643555 C196.11226509 141.59095246 182.39820449 120.46931623 164.3671875 102.203125 C163.82698975 101.64173828 163.28679199 101.08035156 162.73022461 100.50195312 C128.11116574 64.97919369 73.41918161 45.75712498 24.56640625 44.8671875 C21.06225408 44.82658993 17.55904232 44.82027774 14.0546875 44.828125 C13.13609955 44.82866882 12.2175116 44.82921265 11.27108765 44.82977295 C-4.33445088 44.87206392 -19.33321707 45.8982313 -34.6328125 49.203125 C-35.62716309 49.41743164 -36.62151367 49.63173828 -37.64599609 49.85253906 C-69.52546796 56.98531782 -106.16380247 71.01688747 -129.38671875 95.015625 C-130.6328125 96.203125 -130.6328125 96.203125 -132.6328125 96.203125 C-132.21128906 96.73679687 -131.78976563 97.27046875 -131.35546875 97.8203125 C-127.19461476 103.47907393 -125.14043446 108.10372073 -125.6328125 115.203125 C-127.06775059 122.3403823 -130.88302817 126.30533946 -136.84765625 130.421875 C-138.08373497 131.19008038 -139.3249497 131.95006351 -140.5703125 132.703125 C-141.24618408 133.11820313 -141.92205566 133.53328125 -142.6184082 133.9609375 C-144.95018199 135.38578018 -147.29039453 136.79585133 -149.6328125 138.203125 C-150.56158203 138.76257813 -151.49035156 139.32203125 -152.44726562 139.8984375 C-155.40098151 141.67340376 -158.35941537 143.44016679 -161.3203125 145.203125 C-162.26447021 145.76708984 -163.20862793 146.33105469 -164.18139648 146.91210938 C-165.07673096 147.44126953 -165.97206543 147.97042969 -166.89453125 148.515625 C-167.68819092 148.98613281 -168.48185059 149.45664063 -169.29956055 149.94140625 C-174.83751932 152.93608773 -179.38563983 154.03747193 -185.6328125 153.203125 C-191.54912294 151.34038683 -195.13753282 148.24043984 -198.6328125 143.203125 C-200.22307204 139.78917954 -200.89868667 137.01949276 -200.99926758 133.2644043 C-201.02882034 132.30958664 -201.05837311 131.35476898 -201.08882141 130.37101746 C-201.10978378 129.35010513 -201.13074615 128.32919281 -201.15234375 127.27734375 C-201.17882492 126.21578568 -201.20530609 125.1542276 -201.23258972 124.0605011 C-201.28519829 121.81721759 -201.33279559 119.57381173 -201.37573242 117.33032227 C-201.44486289 113.91285156 -201.54089546 110.49683419 -201.63867188 107.08007812 C-201.68654295 104.89586881 -201.7328189 102.71162384 -201.77734375 100.52734375 C-201.80842728 99.51250412 -201.8395108 98.49766449 -201.87153625 97.45207214 C-201.97768871 90.03035314 -201.21013178 84.25521362 -196.2578125 78.390625 C-190.85577415 73.88892637 -186.65118229 72.27572883 -179.6328125 72.203125 C-178.4365625 72.491875 -177.2403125 72.780625 -176.0078125 73.078125 C-172.73632988 73.54734517 -172.73632988 73.54734517 -170.92578125 71.9609375 C-169.09165988 70.09783453 -167.36815022 68.15822165 -165.6328125 66.203125 C-122.4695456 25.188256 -59.36459358 0.28330751 0 0 Z " fill="#F17A89" transform="translate(242.6328125,10.796875)"/>
<path d="M0 0 C5.41970122 3.05532957 8.93855708 7.38372014 10.75 13.375 C11.11522447 16.92804794 11.19439685 20.47731405 11.26953125 24.046875 C11.29601242 25.08386536 11.32249359 26.12085571 11.34977722 27.18927002 C11.40238513 29.38127636 11.44998257 31.57340791 11.49291992 33.765625 C11.56197607 37.09970421 11.65803727 40.43228145 11.75585938 43.765625 C11.80373862 45.90100519 11.85001424 48.03642207 11.89453125 50.171875 C11.94115654 51.65358185 11.94115654 51.65358185 11.98872375 53.16522217 C12.09872047 60.69543928 11.28339074 67.30826384 6.375 73.25 C0.92684198 77.66041364 -3.23918565 79.30247433 -10.25 79.375 C-11.44625 79.08625 -12.6425 78.7975 -13.875 78.5 C-17.14648262 78.03077983 -17.14648262 78.03077983 -18.95703125 79.6171875 C-20.0715654 80.7493328 -21.151242 81.91744495 -22.18359375 83.125 C-34.997695 97.07759418 -51.86336941 108.12081417 -68.25 117.375 C-69.04712402 117.8297168 -69.84424805 118.28443359 -70.66552734 118.75292969 C-109.79458512 140.8495207 -109.79458512 140.8495207 -122.75 137.5 C-124.52371587 136.78564304 -126.2961421 136.06559512 -128.04003906 135.28125 C-131.82607078 133.72869258 -135.76219917 132.66869982 -139.68457031 131.51538086 C-160.5426771 125.3594863 -181.92326972 118.47105313 -201.25 108.375 C-201.25 108.045 -201.25 107.715 -201.25 107.375 C-200.15836548 107.31554199 -200.15836548 107.31554199 -199.04467773 107.25488281 C-150.12211257 104.47532249 -97.32379888 91.8727329 -60.8515625 56.73828125 C-59.25 55.375 -59.25 55.375 -57.25 55.375 C-57.67152344 54.84132813 -58.09304688 54.30765625 -58.52734375 53.7578125 C-62.68819774 48.09905107 -64.74237804 43.47440427 -64.25 36.375 C-62.81506191 29.2377427 -58.99978433 25.27278554 -53.03515625 21.15625 C-51.79907753 20.38804462 -50.5578628 19.62806149 -49.3125 18.875 C-48.63662842 18.45992188 -47.96075684 18.04484375 -47.2644043 17.6171875 C-44.93263051 16.19234482 -42.59241797 14.78227367 -40.25 13.375 C-38.8568457 12.53582031 -38.8568457 12.53582031 -37.43554688 11.6796875 C-34.48183099 9.90472124 -31.52339713 8.13795821 -28.5625 6.375 C-27.14626343 5.52905273 -27.14626343 5.52905273 -25.70141602 4.66601562 C-24.80608154 4.13685547 -23.91074707 3.60769531 -22.98828125 3.0625 C-22.19462158 2.59199219 -21.40096191 2.12148438 -20.58325195 1.63671875 C-13.74255991 -2.06242287 -7.27783034 -3.3018512 0 0 Z " fill="#F17A89" transform="translate(459.25,349.625)"/>
<path d="M0 0 C9.61269655 3.59729793 16.48000898 9.17191704 21.265625 18.31640625 C24.72787115 26.71116746 24.83869556 38.3107422 21.640625 46.87890625 C20.515625 49.1796875 20.515625 49.1796875 19.265625 51.31640625 C18.646875 52.38955078 18.646875 52.38955078 18.015625 53.484375 C13.63117762 60.12332516 7.41465941 63.33208545 0.390625 66.69140625 C-5.68629995 67.90679124 -12.97719412 68.97451636 -18.421875 65.44140625 C-20.93068483 63.13601344 -21.66684293 62.34006688 -21.88827515 58.98356628 C-21.90113556 58.00825455 -21.91399597 57.03294281 -21.92724609 56.02807617 C-21.94330902 54.92320358 -21.95937195 53.81833099 -21.97592163 52.67997742 C-22.02029535 47.62479201 -22.06143301 42.5697388 -22.08447266 37.5144043 C-22.09780787 34.84549064 -22.12833302 32.17838438 -22.16650391 29.50952148 C-22.22118851 25.66757112 -22.24313487 21.82666181 -22.2578125 17.984375 C-22.28048187 16.7915239 -22.30315125 15.59867279 -22.32650757 14.36967468 C-22.30294108 5.15547004 -22.30294108 5.15547004 -19.32666016 2.0871582 C-13.4995645 -1.89324534 -6.77477848 -1.69369462 0 0 Z " fill="#EE7D8B" transform="translate(233.734375,222.68359375)"/>
<path d="M0 0 C0.98871094 -0.00515625 1.97742188 -0.0103125 2.99609375 -0.015625 C4.02347656 -0.00015625 5.05085937 0.0153125 6.109375 0.03125 C7.12128906 0.01578125 8.13320312 0.0003125 9.17578125 -0.015625 C16.67560482 0.02328459 22.14647423 1.32726034 27.8828125 6.27734375 C28.55183594 7.11458984 28.55183594 7.11458984 29.234375 7.96875 C29.69585937 8.52433594 30.15734375 9.07992187 30.6328125 9.65234375 C34.34513587 15.33905566 34.59249758 20.92386673 33.859375 27.53125 C32.09313812 33.70779094 28.18600491 38.05399056 22.859375 41.53125 C18.62811363 43.72085379 14.7105047 43.77228289 10.046875 43.65625 C9.00756836 43.64271484 9.00756836 43.64271484 7.94726562 43.62890625 C6.25115105 43.60551157 4.55521629 43.56964641 2.859375 43.53125 C2.88032227 44.14645508 2.90126953 44.76166016 2.92285156 45.39550781 C3.00614517 48.19058809 3.05807513 50.98540715 3.109375 53.78125 C3.15964844 55.23337891 3.15964844 55.23337891 3.2109375 56.71484375 C3.30962114 63.8694075 3.30962114 63.8694075 1.0390625 67.20703125 C-1.140625 68.53125 -1.140625 68.53125 -4.265625 68.46875 C-7.140625 67.53125 -7.140625 67.53125 -9.140625 64.53125 C-9.40805054 61.91957092 -9.40805054 61.91957092 -9.43115234 58.74633789 C-9.44391205 57.55823013 -9.45667175 56.37012238 -9.46981812 55.14601135 C-9.47204376 53.86161667 -9.47426941 52.57722198 -9.4765625 51.25390625 C-9.4865477 49.27685951 -9.4865477 49.27685951 -9.49673462 47.25987244 C-9.50870689 44.46984584 -9.51241547 41.67994305 -9.51123047 38.88989258 C-9.51102718 35.31740894 -9.53833814 31.74571997 -9.57277489 28.17342472 C-9.60037911 24.76273955 -9.59919265 21.35220175 -9.6015625 17.94140625 C-9.61593353 16.6590358 -9.63030457 15.37666534 -9.64511108 14.05543518 C-9.63895782 12.86417526 -9.63280457 11.67291534 -9.62646484 10.44555664 C-9.62931488 9.39759415 -9.63216492 8.34963165 -9.63510132 7.26991272 C-8.64266651 1.77330121 -5.25878317 0.0266075 0 0 Z " fill="#EF7C8A" transform="translate(175.140625,221.46875)"/>
<path d="M0 0 C3.43303812 1.16869383 4.02099164 2.01099811 5.9375 5 C6.69209052 6.67455995 7.38266587 8.37880416 8.0222168 10.10058594 C8.59246834 11.6230191 8.59246834 11.6230191 9.17424011 13.1762085 C9.57435806 14.26790344 9.97447601 15.35959839 10.38671875 16.484375 C10.80419876 17.61393616 11.22167877 18.74349731 11.65180969 19.9072876 C12.53193185 22.29658365 13.40840511 24.68722652 14.28149414 27.07910156 C15.61674711 30.72745039 16.97276519 34.36762284 18.33007812 38.0078125 C19.18357713 40.33286186 20.03583174 42.65836847 20.88671875 44.984375 C21.29290939 46.06797302 21.69910004 47.15157104 22.11759949 48.26800537 C24.22040016 54.09670001 25.53961988 58.79470788 24.9375 65 C23.75 67 23.75 67 21.9375 68 C19.4375 68.375 19.4375 68.375 16.9375 68 C14.51272658 65.99527206 13.3891148 64.14337444 12.33203125 61.20703125 C12.09589111 60.56483643 11.85975098 59.9226416 11.61645508 59.26098633 C11.3305249 58.45298584 11.04459473 57.64498535 10.75 56.8125 C9.821875 54.234375 8.89375 51.65625 7.9375 49 C2.3275 48.67 -3.2825 48.34 -9.0625 48 C-9.454375 49.27875 -9.84625 50.5575 -10.25 51.875 C-12.03706189 57.13597659 -13.86245006 62.41565879 -17.0625 67 C-20.125 68.375 -20.125 68.375 -23.0625 68 C-25.5 66.5 -25.5 66.5 -27.0625 64 C-26.72566578 57.28086498 -24.19998608 51.14582718 -21.94921875 44.86328125 C-21.53839554 43.7062822 -21.12757233 42.54928314 -20.70429993 41.35722351 C-19.83602444 38.91945181 -18.96421907 36.48293484 -18.08911133 34.04760742 C-16.75251643 30.31951893 -15.43533912 26.58493992 -14.11914062 22.84960938 C-13.27200846 20.47874645 -12.4237397 18.10828928 -11.57421875 15.73828125 C-10.98648933 14.06322258 -10.98648933 14.06322258 -10.3868866 12.35432434 C-10.01002213 11.31612045 -9.63315765 10.27791656 -9.24487305 9.20825195 C-8.91923874 8.29670853 -8.59360443 7.3851651 -8.25810242 6.44599915 C-6.29768085 2.43531014 -4.60971585 0 0 0 Z " fill="#EE7D8B" transform="translate(290.0625,222)"/>
<path d="M0 0 C1.27423828 0.00257813 2.54847656 0.00515625 3.86132812 0.0078125 C4.84879028 0.02956543 4.84879028 0.02956543 5.85620117 0.05175781 C7.86931869 0.09371301 9.87909586 0.09281532 11.89257812 0.0859375 C21.58110643 0.18404918 21.58110643 0.18404918 24.69116211 1.93554688 C26.30859375 3.59375 26.30859375 3.59375 26.74609375 6.59375 C26.30859375 9.59375 26.30859375 9.59375 25.11401367 11.26293945 C22.64848479 13.0803293 21.02615635 12.93713502 17.984375 12.88671875 C16.95634766 12.87705078 15.92832031 12.86738281 14.86914062 12.85742188 C13.26135742 12.8197168 13.26135742 12.8197168 11.62109375 12.78125 C10.53763672 12.76771484 9.45417969 12.75417969 8.33789062 12.74023438 C5.66124671 12.70486023 2.984858 12.65105304 0.30859375 12.59375 C0.30859375 17.87375 0.30859375 23.15375 0.30859375 28.59375 C1.93410156 28.55894531 3.55960937 28.52414063 5.234375 28.48828125 C7.36327094 28.46014606 9.49217802 28.43284562 11.62109375 28.40625 C12.69294922 28.38111328 13.76480469 28.35597656 14.86914062 28.33007812 C15.89716797 28.32041016 16.92519531 28.31074219 17.984375 28.30078125 C19.40617065 28.27721558 19.40617065 28.27721558 20.85668945 28.25317383 C23.30859375 28.59375 23.30859375 28.59375 25.11791992 29.92456055 C26.96633269 32.51582528 26.69438574 34.50741411 26.30859375 37.59375 C25.11791992 39.26293945 25.11791992 39.26293945 23.30859375 40.59375 C20.85668945 40.93432617 20.85668945 40.93432617 17.984375 40.88671875 C16.95634766 40.87705078 15.92832031 40.86738281 14.86914062 40.85742188 C13.26135742 40.8197168 13.26135742 40.8197168 11.62109375 40.78125 C10.53763672 40.76771484 9.45417969 40.75417969 8.33789062 40.74023438 C5.66124671 40.70486023 2.984858 40.65105304 0.30859375 40.59375 C0.30859375 45.87375 0.30859375 51.15375 0.30859375 56.59375 C1.93410156 56.55894531 3.55960937 56.52414062 5.234375 56.48828125 C7.36327094 56.46014606 9.49217802 56.43284562 11.62109375 56.40625 C12.69294922 56.38111328 13.76480469 56.35597656 14.86914062 56.33007812 C15.89716797 56.32041016 16.92519531 56.31074219 17.984375 56.30078125 C19.40617065 56.27721558 19.40617065 56.27721558 20.85668945 56.25317383 C23.30859375 56.59375 23.30859375 56.59375 25.11401367 57.92456055 C26.98856055 60.54386915 26.76327343 62.4759465 26.30859375 65.59375 C22.20672338 69.79344611 17.41998289 69.0748261 11.89257812 69.15039062 C10.90197388 69.15002808 10.90197388 69.15002808 9.89135742 69.1496582 C7.87941154 69.15622286 5.87240137 69.21072365 3.86132812 69.26757812 C2.58708984 69.27337891 1.31285156 69.27917969 0 69.28515625 C-1.16329834 69.29748291 -2.32659668 69.30980957 -3.52514648 69.32250977 C-6.92761356 68.53938352 -8.69953202 67.55319302 -10.76911926 64.69935608 C-12.83316158 59.98709177 -12.39808532 54.76825682 -12.35546875 49.71484375 C-12.36025238 48.47001724 -12.36503601 47.22519073 -12.3699646 45.94264221 C-12.37422943 42.64470356 -12.35417511 39.34795206 -12.32617188 36.0501709 C-12.31640598 34.031194 -12.32614707 32.01330213 -12.34326172 29.99438477 C-12.37414881 26.10902571 -12.37041118 22.22526974 -12.35546875 18.33984375 C-12.3655899 17.13766708 -12.37571106 15.93549042 -12.38613892 14.69688416 C-12.27070084 6.4830408 -12.27070084 6.4830408 -9.56811523 2.33422852 C-6.1017891 0.23701736 -4.03834736 -0.02461213 0 0 Z " fill="#EF7C8A" transform="translate(370.69140625,221.40625)"/>
<path d="M0 0 C2.66060142 0.95508769 3.69289455 1.68447709 5.4375 3.875 C5.80258179 5.91049194 5.80258179 5.91049194 5.79052734 8.26708984 C5.79418304 9.15165863 5.79783875 10.03622742 5.80160522 10.94760132 C5.79230988 11.90075226 5.78301453 12.8539032 5.7734375 13.8359375 C5.7859505 15.85416988 5.79898764 17.87239906 5.8125 19.890625 C5.81643092 23.07270586 5.81247944 26.25447252 5.79785156 29.43652344 C5.78928101 32.5076391 5.81096645 35.57743768 5.8359375 38.6484375 C5.82259369 39.59753998 5.80924988 40.54664246 5.79550171 41.52450562 C5.84677084 46.11026716 5.96033128 48.22684498 8.74853516 52.01416016 C11.38929697 54.21880387 11.38929697 54.21880387 15.0625 53.875 C18.25335187 52.92956241 19.53937442 52.51128553 21.4375 49.875 C22.60205992 47.54588015 22.57377263 46.15905601 22.59521484 43.56469727 C22.60547699 42.67359756 22.61573914 41.78249786 22.62631226 40.86439514 C22.63361359 39.89980881 22.64091492 38.93522247 22.6484375 37.94140625 C22.67650007 35.91079915 22.70516449 33.88020029 22.734375 31.84960938 C22.77569854 28.63891781 22.81257467 25.42838118 22.83886719 22.2175293 C22.86640342 19.12516273 22.91226933 16.0335026 22.9609375 12.94140625 C22.96419037 11.97884415 22.96744324 11.01628204 22.97079468 10.02455139 C22.98736115 9.13029953 23.00392761 8.23604767 23.02099609 7.31469727 C23.02908295 6.52797134 23.0371698 5.74124542 23.04550171 4.93067932 C23.53731847 2.3515417 24.37671286 1.45876776 26.4375 -0.125 C29.56475289 -0.6863018 30.91426682 -0.47370213 33.56665039 1.29394531 C36.41166997 5.2189808 35.99158222 8.87745373 35.93359375 13.609375 C35.93504898 14.5613678 35.93650421 15.5133606 35.93800354 16.49420166 C35.93634454 18.50820982 35.92478313 20.52223066 35.90405273 22.53613281 C35.87523358 25.60016602 35.88341729 28.66245355 35.89648438 31.7265625 C35.89024232 33.68750833 35.88184775 35.64844872 35.87109375 37.609375 C35.87402939 38.51798279 35.87696503 39.42659058 35.87998962 40.36273193 C35.75956305 48.59801616 33.82022547 55.27253962 28.0859375 61.3984375 C22.83135965 66.10514468 17.19346119 66.4720747 10.37890625 66.29296875 C4.57920514 65.46884124 1.00181639 62.52164883 -2.9375 58.375 C-5.58773493 54.2977155 -6.80848711 50.81291228 -6.85302734 45.94873047 C-6.86578705 44.9977951 -6.87854675 44.04685974 -6.89169312 43.06710815 C-6.89391876 42.05238434 -6.89614441 41.03766052 -6.8984375 39.9921875 C-6.9050943 38.9409671 -6.9117511 37.8897467 -6.91860962 36.80667114 C-6.92871688 34.58939359 -6.93342724 32.37208573 -6.93310547 30.15478516 C-6.93749351 26.75503009 -6.97387524 23.35655804 -7.01171875 19.95703125 C-7.0175842 17.80208778 -7.02155541 15.64713814 -7.0234375 13.4921875 C-7.03780853 12.47341522 -7.05217957 11.45464294 -7.06698608 10.40499878 C-7.06083282 9.46036774 -7.05467957 8.51573669 -7.04833984 7.54248047 C-7.05118988 6.71150848 -7.05403992 5.8805365 -7.05697632 5.02438354 C-6.5625 2.875 -6.5625 2.875 -4.69229126 1.07546997 C-2.5625 -0.125 -2.5625 -0.125 0 0 Z " fill="#EE7D8B" transform="translate(121.5625,222.125)"/>
<path d="M0 0 C0.78532608 -0.00524185 1.57065216 -0.0104837 2.379776 -0.0158844 C4.03987445 -0.02230447 5.7000184 -0.02096775 7.36010742 -0.01245117 C9.897799 -0.00394766 12.43323439 -0.0326886 14.97070312 -0.06445312 C16.58463474 -0.06606544 18.19857034 -0.06548702 19.8125 -0.0625 C20.94859962 -0.07935097 20.94859962 -0.07935097 22.10765076 -0.09654236 C25.6166338 -0.05022924 27.62045184 0.17680863 30.49047852 2.26928711 C31.97265625 4.43359375 31.97265625 4.43359375 31.84765625 7.55859375 C30.97265625 10.43359375 30.97265625 10.43359375 28.97265625 12.43359375 C25.93359375 12.62890625 25.93359375 12.62890625 22.34765625 12.55859375 C21.15914063 12.54054687 19.970625 12.5225 18.74609375 12.50390625 C17.83085937 12.48070312 16.915625 12.4575 15.97265625 12.43359375 C15.9815387 13.09091995 15.99042114 13.74824615 15.99957275 14.42549133 C16.08792859 21.25451987 16.1483417 28.08338661 16.19238281 34.9128418 C16.21252322 37.46303907 16.23983722 40.01319003 16.27441406 42.56323242 C16.32282364 46.22456272 16.34560099 49.88528357 16.36328125 53.546875 C16.38392639 54.69070145 16.40457153 55.83452789 16.42584229 57.01301575 C16.42614441 58.07388901 16.42644653 59.13476227 16.42675781 60.2277832 C16.43564026 61.16266068 16.44452271 62.09753815 16.45367432 63.06074524 C15.97265625 65.43359375 15.97265625 65.43359375 14.10443115 67.26676941 C11.97265625 68.43359375 11.97265625 68.43359375 9.41015625 68.30859375 C6.72942943 67.34628156 5.70459363 66.6665314 3.97265625 64.43359375 C3.6118927 62.09870911 3.6118927 62.09870911 3.63208008 59.31958008 C3.63230667 58.27872757 3.63253326 57.23787506 3.63276672 56.16548157 C3.64825058 55.0435289 3.66373444 53.92157623 3.6796875 52.765625 C3.68393234 51.61567551 3.68817719 50.46572601 3.69255066 49.28092957 C3.70936436 45.60241434 3.74702248 41.92444383 3.78515625 38.24609375 C3.80019956 35.75456519 3.81388858 33.26302807 3.82617188 30.77148438 C3.85927672 24.65866782 3.9095032 18.5461697 3.97265625 12.43359375 C3.14121094 12.46839844 2.30976563 12.50320312 1.453125 12.5390625 C-0.17689453 12.57966797 -0.17689453 12.57966797 -1.83984375 12.62109375 C-2.91878906 12.65589844 -3.99773437 12.69070312 -5.109375 12.7265625 C-8.02734375 12.43359375 -8.02734375 12.43359375 -9.890625 11.109375 C-11.6605572 8.50009351 -11.41012691 6.49585905 -11.02734375 3.43359375 C-8.50226834 -0.66988006 -4.31683536 -0.01668721 0 0 Z " fill="#EE7D8B" transform="translate(322.02734375,221.56640625)"/>
<path d="M0 0 C10.32425068 0 10.32425068 0 15 4 C19.86191689 8.8833823 21.40165973 13.25273402 21.5625 20.125 C21.20342079 27.88278112 19.53639334 33.30542399 14 39 C8.784119 42.43773975 6.85869645 42 0 42 C0 28.14 0 14.28 0 0 Z " fill="#A2D3E9" transform="translate(224,235)"/>
<path d="M0 0 C12.25039333 -0.49496539 12.25039333 -0.49496539 15.86328125 1.890625 C18.60957253 4.60177178 18.94628802 5.43065298 19.3125 9.3125 C18.95124058 13.57536111 17.98007946 15.01992054 15 18 C10.73840618 20.13079691 4.59236298 19.04502317 0 19 C0 12.73 0 6.46 0 0 Z " fill="#A4D1E7" transform="translate(178,234)"/>
<path d="M0 0 C2.92578644 1.70670875 5.28408773 3.66476902 7.5 6.25 C7.17 6.91 6.84 7.57 6.5 8.25 C5.10026042 7.01302083 3.70052083 5.77604167 2.30078125 4.5390625 C-3.6412123 0.28557471 -10.48179265 0.3114705 -17.5 1.25 C-24.02700669 3.8965929 -27.60731022 7.96154395 -30.5 14.25 C-30.83 13.26 -31.16 12.27 -31.5 11.25 C-25.22631294 -0.2935842 -12.40578463 -5.9119499 0 0 Z " fill="#EE7988" transform="translate(53.5,313.75)"/>
<path d="M0 0 C2.78633115 4.17949673 4 6.93375326 4 12 C1.36 12 -1.28 12 -4 12 C-3.52309796 10.37433394 -3.04340334 8.74948689 -2.5625 7.125 C-2.29566406 6.22007812 -2.02882813 5.31515625 -1.75390625 4.3828125 C-1 2 -1 2 0 0 Z " fill="#AAC9DF" transform="translate(289,246)"/>
</svg>
