<?xml version="1.0" encoding="UTF-8"?>
<svg version="1.1" xmlns="http://www.w3.org/2000/svg" width="512" height="512">
<path d="M0 0 C1.01790619 0.00215515 2.03581238 0.0043103 3.08456421 0.00653076 C17.69363523 0.05620146 32.02575853 0.30709809 46.375 3.3125 C47.34985352 3.51117676 48.32470703 3.70985352 49.32910156 3.91455078 C97.7109774 14.03517194 141.69928269 35.9516877 177.375 70.3125 C178.3640332 71.26068604 178.3640332 71.26068604 179.37304688 72.22802734 C188.86130305 81.37247479 197.6012044 90.66984009 205.375 101.3125 C206.23306152 102.46355017 207.09113451 103.61459177 207.94921875 104.765625 C213.98736829 112.95680614 219.34595521 121.47054105 224.375 130.3125 C224.73948242 130.94430176 225.10396484 131.57610352 225.47949219 132.22705078 C247.08534998 169.97532572 256.85198095 212.74189997 256.6875 255.9375 C256.68534485 256.95540619 256.6831897 257.97331238 256.68096924 259.02206421 C256.63129854 273.63113523 256.38040191 287.96325853 253.375 302.3125 C253.07698486 303.77478027 253.07698486 303.77478027 252.77294922 305.26660156 C242.65232806 353.6484774 220.7358123 397.63678269 186.375 433.3125 C185.74287598 433.97185547 185.11075195 434.63121094 184.45947266 435.31054688 C175.31502521 444.79880305 166.01765991 453.5387044 155.375 461.3125 C154.22394983 462.17056152 153.07290823 463.02863451 151.921875 463.88671875 C143.73224019 469.92427396 135.22961724 475.30707302 126.375 480.3125 C125.66778809 480.7146875 124.96057617 481.116875 124.23193359 481.53125 C101.09654164 494.5566741 75.92537591 503.30551461 49.9375 508.625 C49.21860596 508.77235596 48.49971191 508.91971191 47.7590332 509.0715332 C33.08339502 511.86090125 18.55831162 512.66142619 3.64770508 512.62817383 C0.70811513 512.6250221 -2.2304558 512.64854926 -5.16992188 512.67382812 C-18.54306192 512.71848737 -31.43916711 511.51301542 -44.625 509.3125 C-46.33055054 509.03031616 -46.33055054 509.03031616 -48.07055664 508.74243164 C-91.33802759 500.97044532 -132.38793216 480.98345309 -165.625 452.3125 C-166.37007813 451.67828125 -167.11515625 451.0440625 -167.8828125 450.390625 C-181.38779833 438.57948485 -194.05918743 425.82889772 -204.625 411.3125 C-205.48149066 410.16255169 -206.33826433 409.01281411 -207.1953125 407.86328125 C-213.23534209 399.67315742 -218.61867614 391.16870382 -223.625 382.3125 C-224.0271875 381.60528809 -224.429375 380.89807617 -224.84375 380.16943359 C-237.8691741 357.03404164 -246.61801461 331.86287591 -251.9375 305.875 C-252.08485596 305.15610596 -252.23221191 304.43721191 -252.3840332 303.6965332 C-255.35789088 288.05024391 -255.99800362 272.57681954 -255.9375 256.6875 C-255.93534485 255.66959381 -255.9331897 254.65168762 -255.93096924 253.60293579 C-255.88129854 238.99386477 -255.63040191 224.66174147 -252.625 210.3125 C-252.42632324 209.33764648 -252.22764648 208.36279297 -252.02294922 207.35839844 C-241.90232806 158.9765226 -219.9858123 114.98821731 -185.625 79.3125 C-184.99287598 78.65314453 -184.36075195 77.99378906 -183.70947266 77.31445312 C-174.56502521 67.82619695 -165.26765991 59.0862956 -154.625 51.3125 C-153.47394983 50.45443848 -152.32290823 49.59636549 -151.171875 48.73828125 C-142.98224019 42.70072604 -134.47961724 37.31792698 -125.625 32.3125 C-124.91778809 31.9103125 -124.21057617 31.508125 -123.48193359 31.09375 C-100.34654164 18.0683259 -75.17537591 9.31948539 -49.1875 4 C-48.46860596 3.85264404 -47.74971191 3.70528809 -47.0090332 3.5534668 C-31.36274391 0.57960912 -15.88931954 -0.06050362 0 0 Z " fill="#B8E9F7" transform="translate(255.625,-0.3125)"/>
<path d="M0 0 C1.01790619 0.00215515 2.03581238 0.0043103 3.08456421 0.00653076 C17.69363523 0.05620146 32.02575853 0.30709809 46.375 3.3125 C47.34985352 3.51117676 48.32470703 3.70985352 49.32910156 3.91455078 C97.7109774 14.03517194 141.69928269 35.9516877 177.375 70.3125 C178.3640332 71.26068604 178.3640332 71.26068604 179.37304688 72.22802734 C188.86130305 81.37247479 197.6012044 90.66984009 205.375 101.3125 C206.23306152 102.46355017 207.09113451 103.61459177 207.94921875 104.765625 C213.98736829 112.95680614 219.34595521 121.47054105 224.375 130.3125 C224.73948242 130.94430176 225.10396484 131.57610352 225.47949219 132.22705078 C247.08534998 169.97532572 256.85198095 212.74189997 256.6875 255.9375 C256.68534485 256.95540619 256.6831897 257.97331238 256.68096924 259.02206421 C256.63129854 273.63113523 256.38040191 287.96325853 253.375 302.3125 C253.07698486 303.77478027 253.07698486 303.77478027 252.77294922 305.26660156 C242.65232806 353.6484774 220.7358123 397.63678269 186.375 433.3125 C185.74287598 433.97185547 185.11075195 434.63121094 184.45947266 435.31054688 C175.31502521 444.79880305 166.01765991 453.5387044 155.375 461.3125 C154.22394983 462.17056152 153.07290823 463.02863451 151.921875 463.88671875 C143.73224019 469.92427396 135.22961724 475.30707302 126.375 480.3125 C125.66778809 480.7146875 124.96057617 481.116875 124.23193359 481.53125 C101.09654164 494.5566741 75.92537591 503.30551461 49.9375 508.625 C49.21860596 508.77235596 48.49971191 508.91971191 47.7590332 509.0715332 C33.08339502 511.86090125 18.55831162 512.66142619 3.64770508 512.62817383 C0.70811513 512.6250221 -2.2304558 512.64854926 -5.16992188 512.67382812 C-18.54306192 512.71848737 -31.43916711 511.51301542 -44.625 509.3125 C-46.33055054 509.03031616 -46.33055054 509.03031616 -48.07055664 508.74243164 C-91.33802759 500.97044532 -132.38793216 480.98345309 -165.625 452.3125 C-166.37007813 451.67828125 -167.11515625 451.0440625 -167.8828125 450.390625 C-181.38779833 438.57948485 -194.05918743 425.82889772 -204.625 411.3125 C-205.48149066 410.16255169 -206.33826433 409.01281411 -207.1953125 407.86328125 C-213.23534209 399.67315742 -218.61867614 391.16870382 -223.625 382.3125 C-224.0271875 381.60528809 -224.429375 380.89807617 -224.84375 380.16943359 C-237.8691741 357.03404164 -246.61801461 331.86287591 -251.9375 305.875 C-252.08485596 305.15610596 -252.23221191 304.43721191 -252.3840332 303.6965332 C-255.35789088 288.05024391 -255.99800362 272.57681954 -255.9375 256.6875 C-255.93534485 255.66959381 -255.9331897 254.65168762 -255.93096924 253.60293579 C-255.88129854 238.99386477 -255.63040191 224.66174147 -252.625 210.3125 C-252.42632324 209.33764648 -252.22764648 208.36279297 -252.02294922 207.35839844 C-241.90232806 158.9765226 -219.9858123 114.98821731 -185.625 79.3125 C-184.99287598 78.65314453 -184.36075195 77.99378906 -183.70947266 77.31445312 C-174.56502521 67.82619695 -165.26765991 59.0862956 -154.625 51.3125 C-153.47394983 50.45443848 -152.32290823 49.59636549 -151.171875 48.73828125 C-142.98224019 42.70072604 -134.47961724 37.31792698 -125.625 32.3125 C-124.91778809 31.9103125 -124.21057617 31.508125 -123.48193359 31.09375 C-100.34654164 18.0683259 -75.17537591 9.31948539 -49.1875 4 C-48.46860596 3.85264404 -47.74971191 3.70528809 -47.0090332 3.5534668 C-31.36274391 0.57960912 -15.88931954 -0.06050362 0 0 Z M-166.70068359 106.23144531 C-171.3912583 111.30407394 -175.57720722 116.72078954 -179.625 122.3125 C-180.38941406 123.35535156 -181.15382812 124.39820312 -181.94140625 125.47265625 C-217.25295051 175.03164098 -230.47891488 235.0421697 -220.74609375 294.94921875 C-220.37817949 297.07132335 -220.00506736 299.1925383 -219.625 301.3125 C-219.48078613 302.1370166 -219.33657227 302.9615332 -219.18798828 303.81103516 C-213.31612908 336.0030584 -197.244007 370.63582468 -175.625 395.3125 C-174.965 395.6425 -174.305 395.9725 -173.625 396.3125 C-171.70053488 395.58847981 -171.70053488 395.58847981 -169.56640625 394.390625 C-168.71973389 393.94759033 -167.87306152 393.50455566 -167.00073242 393.0480957 C-166.07236572 392.55784912 -165.14399902 392.06760254 -164.1875 391.5625 C-130.79897737 374.44932679 -94.69382515 363.05451586 -57.6875 357 C-56.34365234 356.77908691 -56.34365234 356.77908691 -54.97265625 356.55371094 C-36.54682593 353.75973738 -18.11266433 352.93362557 0.5 353 C1.56872345 353.00182281 2.6374469 353.00364563 3.73855591 353.00552368 C34.9509629 353.09485746 65.23603467 356.99923643 95.375 365.3125 C96.22642578 365.54130859 97.07785156 365.77011719 97.95507812 366.00585938 C124.77995007 373.25733622 149.60204601 383.90720266 174.375 396.3125 C210.11108313 360.99433987 224.35069895 302.85348505 224.6875 254.4375 C224.51356265 204.56522796 207.60997042 156.26115007 176.375 117.3125 C175.18583984 115.81783203 175.18583984 115.81783203 173.97265625 114.29296875 C162.39485495 100.03586017 149.25634253 87.08498032 134.375 76.3125 C132.81072266 75.16587891 132.81072266 75.16587891 131.21484375 73.99609375 C53.31846556 18.49371772 -50.66162385 19.07473944 -166.70068359 106.23144531 Z " fill="#455B66" transform="translate(255.625,-0.3125)"/>
<path d="M0 0 C1.63680222 -0.00101212 1.63680222 -0.00101212 3.30667114 -0.00204468 C34.7090773 0.02876373 65.11065594 3.88491363 95.4375 12.25 C96.71463867 12.59321289 96.71463867 12.59321289 98.01757812 12.94335938 C124.84245007 20.19483622 149.66454601 30.84470266 174.4375 43.25 C173.57933759 47.62323774 171.1966688 50.04811318 168.1875 53.1875 C167.6517334 53.75452637 167.1159668 54.32155273 166.56396484 54.90576172 C164.86386186 56.69573363 163.15136877 58.47321459 161.4375 60.25 C160.90479492 60.80993652 160.37208984 61.36987305 159.82324219 61.94677734 C121.31301957 102.34802077 64.99762398 127.16361698 9.24609375 128.53125 C-7.19013109 128.84073969 -23.36312255 128.26530002 -39.5625 125.25 C-40.45227539 125.08902832 -41.34205078 124.92805664 -42.25878906 124.76220703 C-92.09244204 115.44189931 -134.10711241 88.5536829 -168.5625 52.25 C-169.40554687 51.36183594 -170.24859375 50.47367187 -171.1171875 49.55859375 C-172.5625 47.25 -172.5625 47.25 -172.49609375 44.80566406 C-171.18356381 41.212682 -169.48408278 40.68452552 -166.0703125 39.05078125 C-164.90395264 38.48625244 -163.73759277 37.92172363 -162.53588867 37.34008789 C-161.25379673 36.74603622 -159.9709805 36.15354563 -158.6875 35.5625 C-157.36887654 34.94201829 -156.05027328 34.32149366 -154.73168945 33.70092773 C-106.14352638 11.07946293 -53.46469729 0.02971128 0 0 Z " fill="#354A55" transform="translate(255.5625,351.75)"/>
<path d="M0 0 C5.5952381 0.5952381 5.5952381 0.5952381 8 3 C7.88978698 8.95150334 4.69598653 13.53231232 1.75 18.5 C1.21205811 19.42361328 0.67411621 20.34722656 0.11987305 21.29882812 C-1.57675112 24.20522123 -3.28685227 27.10332118 -5 30 C-6.03009702 31.74991224 -7.06004901 33.49990986 -8.08984375 35.25 C-10.20936593 38.84571417 -12.33553759 42.43741593 -14.46484375 46.02734375 C-18.41528997 52.6928117 -22.33381418 59.3768758 -26.25 66.0625 C-26.60726166 66.67230713 -26.96452332 67.28211426 -27.33261108 67.91040039 C-29.15881277 71.02753864 -30.98476263 74.14482427 -32.81054688 77.26220703 C-34.96140075 80.93441115 -37.11332928 84.60598456 -39.265625 88.27734375 C-39.61567093 88.87446671 -39.96571686 89.47158966 -40.32637024 90.08680725 C-42.08542868 93.08738712 -43.84470436 96.08783942 -45.60424805 99.08813477 C-48.87879739 104.67225727 -52.15155449 110.25740391 -55.41751099 115.84655762 C-56.93400446 118.44151896 -58.45158447 121.03584411 -59.96923828 123.63012695 C-60.68152778 124.84839968 -61.39330484 126.06697221 -62.10449219 127.28588867 C-65.76170243 133.55375454 -69.45001648 139.80241914 -73.21875 146.00390625 C-73.83814453 147.02556885 -74.45753906 148.04723145 -75.09570312 149.09985352 C-83.12122441 161.32231087 -94.03312727 169.56291717 -108.375 172.75 C-109.57125 172.8325 -110.7675 172.915 -112 173 C-113.30710937 173.09474609 -113.30710937 173.09474609 -114.640625 173.19140625 C-127.16217676 173.69947969 -138.20714362 169.78368372 -148 162 C-154.30097273 156.16031343 -158.80081175 149.96660604 -162 142 C-162.31839844 141.23300781 -162.63679687 140.46601563 -162.96484375 139.67578125 C-167.08067253 128.20077476 -165.97164758 115.97776842 -161 105 C-156.2999856 95.44701216 -150.17281435 88.77052026 -141.07421875 83.2578125 C-140.22429855 82.74154297 -140.22429855 82.74154297 -139.35720825 82.21484375 C-133.66252011 78.76799437 -127.92166736 75.39889779 -122.17080688 72.04681396 C-119.00907987 70.20377615 -115.85021659 68.3558435 -112.69140625 66.5078125 C-112.0477562 66.13133575 -111.40410614 65.75485901 -110.74095154 65.36697388 C-104.24740071 61.56551961 -97.77982895 57.72088604 -91.3125 53.875 C-82.53861777 48.66039444 -73.72682863 43.51860208 -64.875 38.4375 C-55.32811728 32.95732084 -45.868741 27.3474203 -36.44677734 21.65551758 C-27.38893872 16.19792144 -18.24015473 10.9074167 -9.06054688 5.65820312 C-8.01962891 5.06201172 -6.97871094 4.46582031 -5.90625 3.8515625 C-4.51889648 3.05999756 -4.51889648 3.05999756 -3.10351562 2.25244141 C-1.0859935 1.16793332 -1.0859935 1.16793332 0 0 Z " fill="#DF6064" transform="translate(374,130)"/>
<path d="M0 0 C1.14681747 -0.00571014 2.29363495 -0.01142029 3.47520447 -0.01730347 C5.371856 -0.01898026 5.371856 -0.01898026 7.30682373 -0.02069092 C8.64712155 -0.02531847 9.98741805 -0.03034305 11.32771301 -0.03573608 C14.97457485 -0.04887034 18.62141826 -0.05530733 22.26830006 -0.05974674 C24.5468273 -0.06267653 26.8253495 -0.06678121 29.10387421 -0.07125092 C36.23299265 -0.08493012 43.36209958 -0.09459403 50.49123025 -0.09845281 C58.72009632 -0.10293121 66.94879609 -0.12046713 75.17761159 -0.1494534 C81.53778144 -0.1710791 87.89790454 -0.1811576 94.25811076 -0.18249393 C98.05671372 -0.18354156 101.85516044 -0.18943999 105.65372467 -0.20731354 C109.22915235 -0.22380912 112.80430663 -0.22594267 116.37975883 -0.21717453 C118.31329716 -0.21603863 120.24682646 -0.22974557 122.18031311 -0.243927 C128.8813934 -0.21170229 134.09968252 -0.12597004 139.24334717 4.67559814 C143.40009669 10.11134752 143.76895893 13.35976976 143.80194092 20.09356689 C143.80764099 20.9865448 143.81334106 21.87952271 143.81921387 22.79956055 C143.82867077 24.69263522 143.83520058 26.58572642 143.83905029 28.4788208 C143.84873066 31.36502165 143.87973683 34.25050278 143.91131592 37.13653564 C143.91784856 38.97637517 143.923098 40.81621979 143.92694092 42.65606689 C143.93928772 43.51565002 143.95163452 44.37523315 143.96435547 45.26086426 C143.94316601 51.00775824 143.12635792 55.36936069 139.09881592 59.78497314 C134.59258536 63.29373079 131.70866873 64.26354112 126.07737732 64.28761292 C124.35508911 64.29834587 124.35508911 64.29834587 122.5980072 64.30929565 C121.33716812 64.31198456 120.07632904 64.31467346 118.77728271 64.31744385 C117.436837 64.32370992 116.09639301 64.33035685 114.75595093 64.33735657 C110.35332444 64.35838067 105.95069767 64.36875678 101.54803467 64.37872314 C100.03164972 64.38277119 98.51526496 64.38688813 96.99888039 64.39107323 C89.87510789 64.41012056 82.75134574 64.42435306 75.62755269 64.4326852 C67.40713767 64.44245906 59.18699182 64.46878417 50.96667165 64.50918609 C44.61072903 64.53935189 38.25486355 64.55415446 31.89885074 64.55746621 C28.10355961 64.55981601 24.30855618 64.56876709 20.5133419 64.59392738 C16.94194762 64.61722184 13.37103021 64.62143619 9.79957962 64.611166 C7.86841498 64.61043526 5.93727448 64.62951649 4.00621033 64.64923096 C-2.41105837 64.61070567 -6.57916077 64.5712408 -11.40118408 60.14044189 C-14.90396052 56.25898692 -16.5050491 53.35877299 -16.57818604 48.13140869 C-16.59102127 47.3301506 -16.60385651 46.52889252 -16.61708069 45.70335388 C-16.62446762 44.84083511 -16.63185455 43.97831635 -16.63946533 43.08966064 C-16.64753708 42.19809769 -16.65560883 41.30653473 -16.66392517 40.38795471 C-16.67775315 38.50086403 -16.68848105 36.61374847 -16.6963501 34.72662354 C-16.71355753 31.8491039 -16.75745396 28.97273509 -16.80157471 26.09552002 C-16.81170263 24.26024199 -16.82021842 22.42495422 -16.82696533 20.58966064 C-16.84447342 19.73321457 -16.86198151 18.87676849 -16.88002014 17.99436951 C-16.86034488 12.54208618 -16.02340068 9.46848391 -12.40118408 5.14044189 C-8.04872102 1.3061292 -5.7514728 0.0170976 0 0 Z " fill="#68B6AC" transform="translate(192.40118408203125,383.85955810546875)"/>
<path d="M0 0 C7.33590199 4.77843157 11.62856456 11.65837182 14 20 C15.32339593 30.72647224 12.87791124 40.16037827 6.4375 48.875 C1.39325043 54.26257545 -7.47221888 58.61745894 -14.8203125 59.23828125 C-22.21377368 59.40432825 -27.64458785 58.86641044 -34 55 C-35.04800781 54.38125 -35.04800781 54.38125 -36.1171875 53.75 C-43.49878749 48.8475034 -47.64893302 41.43178111 -50 33 C-50.88055277 24.83952844 -50.30216839 18.0496591 -46 11 C-45.57589844 10.30132812 -45.15179688 9.60265625 -44.71484375 8.8828125 C-34.17648681 -6.6752075 -15.80622083 -8.79670733 0 0 Z " fill="#364A55" transform="translate(274,229)"/>
<path d="M0 0 C0 0.33 0 0.66 0 1 C-0.79881592 1.11480713 -1.59763184 1.22961426 -2.4206543 1.34790039 C-42.71840154 7.26494283 -79.02625314 21.3677589 -108 51 C-108.66 51 -109.32 51 -110 51 C-110.26256592 51.59184082 -110.52513184 52.18368164 -110.7956543 52.79345703 C-112.05698207 55.10439974 -113.35626339 56.51175264 -115.26953125 58.3046875 C-132.60722919 75.18082357 -144.00903334 98.47766217 -152 121 C-152.26393555 121.73734375 -152.52787109 122.4746875 -152.79980469 123.234375 C-158.57023878 140.05507356 -159.29426197 158.41851025 -161 176 C-166.28 176 -171.56 176 -177 176 C-178.12225184 132.23217839 -161.2485875 89.49398119 -131.39453125 57.48828125 C-130.60433594 56.66714844 -129.81414062 55.84601563 -129 55 C-128.52481934 54.49903809 -128.04963867 53.99807617 -127.56005859 53.48193359 C-111.30884959 36.41073297 -92.3871992 23.83582423 -71 14 C-69.84628906 13.46632813 -68.69257813 12.93265625 -67.50390625 12.3828125 C-46.03732765 3.14524356 -23.20727788 -0.47361792 0 0 Z " fill="#D5F7FE" transform="translate(257,80)"/>
<path d="M0 0 C4.0743356 0.84881992 5.54405875 2.30225596 8 5.625 C8.625 8.625 8.625 8.625 8 11.625 C5.54405875 14.94774404 4.0743356 16.40118008 0 17.25 C-4.0743356 16.40118008 -5.54405875 14.94774404 -8 11.625 C-8.625 8.625 -8.625 8.625 -8 5.625 C-5.54405875 2.30225596 -4.0743356 0.84881992 0 0 Z " fill="#3B515C" transform="translate(456,247.375)"/>
<path d="M0 0 C4.0743356 0.84881992 5.54405875 2.30225596 8 5.625 C8.625 8.625 8.625 8.625 8 11.625 C5.54405875 14.94774404 4.0743356 16.40118008 0 17.25 C-4.0743356 16.40118008 -5.54405875 14.94774404 -8 11.625 C-8.625 8.625 -8.625 8.625 -8 5.625 C-5.54405875 2.30225596 -4.0743356 0.84881992 0 0 Z " fill="#3B515C" transform="translate(56,247.375)"/>
<path d="M0 0 C4.0743356 0.84881992 5.54405875 2.30225596 8 5.625 C8.625 8.625 8.625 8.625 8 11.625 C5.54405875 14.94774404 4.0743356 16.40118008 0 17.25 C-4.0743356 16.40118008 -5.54405875 14.94774404 -8 11.625 C-8.625 8.625 -8.625 8.625 -8 5.625 C-5.54405875 2.30225596 -4.0743356 0.84881992 0 0 Z " fill="#3B515C" transform="translate(256,47.375)"/>
<path d="M0 0 C3 2.0625 3 2.0625 5 5 C5.1506132 9.29247606 4.66257079 11.22050496 1.875 14.5 C-1.93532871 16.48799759 -3.91964404 16.20899436 -8 15 C-10.81972931 12.63506574 -10.97850831 11.1719335 -11.4375 7.5 C-11 4 -11 4 -9.4375 1.5625 C-6.01685857 -0.63021887 -3.99048721 -0.63007693 0 0 Z " fill="#3A505B" transform="translate(311,55)"/>
<path d="M0 0 C3 2.0625 3 2.0625 5 5 C5.1526226 9.3497442 4.71471806 11.2257221 1.75 14.4375 C-1.31174854 16.17712985 -2.56624271 16.77259539 -6 16 C-9.62336332 13.3428669 -10.85568506 11.91399461 -11.5625 7.4375 C-11 4 -11 4 -9.4375 1.5625 C-6.01685857 -0.63021887 -3.99048721 -0.63007693 0 0 Z " fill="#3A505B" transform="translate(66,300)"/>
<path d="M0 0 C4.0743356 0.84881992 5.54405875 2.30225596 8 5.625 C8.625 8.625 8.625 8.625 8 11.625 C5.51397551 14.98844489 4.08574477 16.42557749 -0.0625 17.1875 C-3.74345769 16.48263576 -4.87000351 15.7016616 -7 12.625 C-8.0625 9.1875 -8.0625 9.1875 -8 5.625 C-5.59686932 2.20235933 -4.11289267 0.85685264 0 0 Z " fill="#394F5B" transform="translate(429,347.375)"/>
<path d="M0 0 C3.80484394 0.71340824 5.4511805 1.6388541 8 4.5625 C8.80740332 9.00321826 8.50331836 10.83040056 5.9375 14.5625 C3 16.5625 3 16.5625 -0.5625 16.6875 C-4.61808807 15.36021663 -5.90599656 14.24794605 -8 10.5625 C-8.5625 8.0625 -8.5625 8.0625 -8 5.5625 C-5.52745249 2.29001064 -4.07387885 0.76385228 0 0 Z " fill="#3A505B" transform="translate(449,299.4375)"/>
<path d="M0 0 C4.10238116 1.34259747 5.44380003 2.30374172 7.4375 6.125 C7.4375 9.90410616 7.27039714 12.13193033 4.8125 15.0625 C1.42581357 16.57759656 -0.89667263 16.64868962 -4.5625 16.125 C-7.4861459 13.5761805 -8.41159176 11.92984394 -9.125 8.125 C-8.10902344 2.70645837 -5.51912397 0.19365347 0 0 Z " fill="#3A505B" transform="translate(63.5625,195.875)"/>
<path d="M0 0 C4.0743356 0.84881992 5.54405875 2.30225596 8 5.625 C8.625 8.625 8.625 8.625 8 11.625 C5.51397551 14.98844489 4.08574477 16.42557749 -0.0625 17.1875 C-3.74345769 16.48263576 -4.87000351 15.7016616 -7 12.625 C-8.0625 9.1875 -8.0625 9.1875 -8 5.625 C-5.59686932 2.20235933 -4.11289267 0.85685264 0 0 Z " fill="#394F5A" transform="translate(429,147.375)"/>
<path d="M0 0 C3.80484394 0.71340824 5.4511805 1.6388541 8 4.5625 C8.80740332 9.00321826 8.50331836 10.83040056 5.9375 14.5625 C3 16.5625 3 16.5625 -0.5625 16.6875 C-4.61808807 15.36021663 -5.90599656 14.24794605 -8 10.5625 C-8.5625 8.0625 -8.5625 8.0625 -8 5.5625 C-5.52745249 2.29001064 -4.07387885 0.76385228 0 0 Z " fill="#3A505B" transform="translate(204,54.4375)"/>
<path d="M0 0 C3.71317907 1.14770989 5.2692056 1.85342428 7.4375 5.0625 C8.03976822 8.67610931 7.93599691 10.32472457 5.875 13.375 C2.59146616 15.64821574 0.42952191 16.13253547 -3.5625 16.0625 C-6.98514067 13.65936932 -8.33064736 12.17539267 -9.1875 8.0625 C-8.06449489 2.67207546 -5.55537361 0.09746269 0 0 Z " fill="#394F5A" transform="translate(83.5625,347.9375)"/>
<path d="M0 0 C2.55078958 2.22165544 2.93332671 3.60829443 3.5 6.9375 C2.81810427 11.11411135 1.36996335 12.50915752 -2 15 C-5 15.625 -5 15.625 -8 15 C-10.9375 12.9375 -10.9375 12.9375 -13 10 C-13.1506132 5.70752394 -12.66257079 3.77949504 -9.875 0.5 C-6.06467129 -1.48799759 -4.08035596 -1.20899436 0 0 Z " fill="#394F5A" transform="translate(454,197)"/>
<path d="M0 0 C4.11289267 0.85685264 5.59686932 2.20235933 8 5.625 C8.07003547 9.61702191 7.58571574 11.77896616 5.3125 15.0625 C2.26222457 17.12349691 0.61360931 17.22726822 -3 16.625 C-6.20907572 14.4567056 -6.91479011 12.90067907 -8.0625 9.1875 C-8 5.625 -8 5.625 -5.9375 2.6875 C-3 0.625 -3 0.625 0 0 Z " fill="#394F5A" transform="translate(156,74.375)"/>
<path d="M0 0 C3.72975427 1.15283314 5.35163561 1.75988138 7.4375 5.0625 C7.37702191 8.50975099 7.09986979 10.95855036 5.3125 13.9375 C2.28014294 15.75691423 -0.04116855 16.0625 -3.5625 16.0625 C-6.98514067 13.65936932 -8.33064736 12.17539267 -9.1875 8.0625 C-8.06449489 2.67207546 -5.55537361 0.09746269 0 0 Z " fill="#394F5A" transform="translate(83.5625,147.9375)"/>
<path d="M0 0 C4.11289267 0.85685264 5.59686932 2.20235933 8 5.625 C8 9.14633145 7.69441423 11.46764294 5.875 14.5 C2.89605036 16.28736979 0.44725099 16.56452191 -3 16.625 C-6.30261862 14.53913561 -6.90966686 12.91725427 -8.0625 9.1875 C-8 5.625 -8 5.625 -5.9375 2.6875 C-3 0.625 -3 0.625 0 0 Z " fill="#394F5A" transform="translate(356,74.375)"/>
<path d="M0 0 C2.4375 1.5625 2.4375 1.5625 4 4 C4.55802097 7.90614682 4.58392818 10.05111671 2.5 13.4375 C-0.53037069 15.33148168 -2.55830934 15.64334247 -6.08984375 15.4453125 C-8 15 -8 15 -10.5625 12.9375 C-12.44610971 9.08838451 -12.207644 7.07579849 -11 3 C-7.92160879 -0.67038952 -4.56677188 -0.57084649 0 0 Z " fill="#394F5A" transform="translate(401,107)"/>
<path d="M0 0 C2.4375 1.5625 2.4375 1.5625 4 4 C4.56288002 7.94016013 4.60396028 10.05782196 2.4375 13.4375 C-0.94217804 15.60396028 -3.05983987 15.56288002 -7 15 C-9.4375 13.4375 -9.4375 13.4375 -11 11 C-11.56288002 7.05983987 -11.60396028 4.94217804 -9.4375 1.5625 C-6.05782196 -0.60396028 -3.94016013 -0.56288002 0 0 Z " fill="#374C57" transform="translate(118,107)"/>
</svg>
