<?xml version="1.0" encoding="UTF-8"?>
<svg version="1.1" xmlns="http://www.w3.org/2000/svg" width="512" height="512">
<path d="M0 0 C17.07558784 14.84074608 27.18602872 33.74843819 31.25390625 55.87890625 C31.38539063 56.58144531 31.516875 57.28398437 31.65234375 58.0078125 C37.03518695 92.85081106 17.77918465 126.51922579 -1.83984375 153.69189453 C-7.20630273 160.96805825 -12.96058396 167.93490082 -18.74609375 174.87890625 C-19.50043701 175.7920459 -19.50043701 175.7920459 -20.27001953 176.72363281 C-27.47474618 185.42825472 -35.15203711 193.50735216 -43.23510742 201.40014648 C-45.42344851 203.54181428 -47.58447216 205.71031169 -49.74609375 207.87890625 C-53.07942708 211.21223958 -56.41276042 214.54557292 -59.74609375 217.87890625 C-64.08333581 215.55345726 -67.38618029 212.53038584 -70.82421875 209.06640625 C-71.39509216 208.49744629 -71.96596558 207.92848633 -72.55413818 207.34228516 C-73.76006899 206.1377116 -74.9634928 204.93062362 -76.16455078 203.72119141 C-77.96956656 201.90558902 -79.78483868 200.1007528 -81.6015625 198.296875 C-87.72350747 192.18154807 -93.52624622 186.00324119 -98.88842773 179.2019043 C-100.69582198 176.94177074 -102.59065727 174.81208773 -104.55859375 172.69140625 C-132.54017038 141.48332575 -155.03231535 102.65192274 -152.97802734 59.86181641 C-151.2456346 37.58142217 -139.12299898 15.57142702 -122.453125 0.89453125 C-87.11907496 -28.70940018 -35.68429798 -29.8673585 0 0 Z " fill="#E63950" transform="translate(152.74609375,268.12109375)"/>
<path d="M0 0 C23.69786155 -0.69472558 45.95036958 7.64232745 63.7109375 23.1171875 C64.68160156 23.88933594 65.65226563 24.66148438 66.65234375 25.45703125 C82.4375277 38.62092101 91.24797571 59.31775884 94.7109375 79.1171875 C97.21568928 117.10649856 82.24513337 148.23390714 59.7109375 178.1171875 C59.246875 178.73287598 58.7828125 179.34856445 58.3046875 179.98291016 C51.46152004 188.99129856 44.18178429 197.62538453 36.7109375 206.1171875 C35.89753906 207.04402344 35.08414063 207.97085938 34.24609375 208.92578125 C28.41144514 215.42408657 22.30276851 221.65101365 16.15328979 227.85006714 C15.19519876 228.81630731 14.23858164 229.78401131 13.28347778 230.75320435 C11.93126531 232.12327384 10.57123749 233.48561627 9.2109375 234.84765625 C8.416875 235.64582764 7.6228125 236.44399902 6.8046875 237.26635742 C4.7109375 239.1171875 4.7109375 239.1171875 1.7109375 240.1171875 C-1.25130208 237.15494792 -4.21354167 234.19270833 -7.17578125 231.23046875 C-7.70510254 230.70130859 -8.23442383 230.17214844 -8.77978516 229.62695312 C-10.09785065 228.30846121 -11.41429759 226.98835166 -12.73046875 225.66796875 C-14.72485742 223.67966982 -16.72977477 221.70430074 -18.7421875 219.734375 C-25.22885271 213.35825862 -31.49575075 206.99583608 -37.12890625 199.8359375 C-39.09500965 197.36142038 -41.13636112 194.97261963 -43.21386719 192.59155273 C-67.83613144 164.21357014 -92.98033489 125.16199653 -90.2890625 86.1171875 C-87.72196362 60.42192351 -76.5964642 38.24269268 -56.8828125 21.17578125 C-52.57093442 17.75355271 -48.05794837 14.85830611 -43.2890625 12.1171875 C-42.39960938 11.59253906 -41.51015625 11.06789063 -40.59375 10.52734375 C-28.18991779 3.73805955 -14.0170713 0.71759751 0 0 Z " fill="#E53850" transform="translate(417.2890625,25.8828125)"/>
<path d="M0 0 C0.83982925 -0.00014603 1.67965851 -0.00029205 2.54493713 -0.0004425 C5.29894668 0.00024975 8.05288715 0.00800976 10.80688477 0.01586914 C12.72502099 0.01773576 14.64315769 0.01915851 16.56129456 0.02015686 C21.59346854 0.0239628 26.62561336 0.03377656 31.65777588 0.04486084 C36.7992717 0.05511642 41.94077227 0.05966335 47.08227539 0.06469727 C57.1584621 0.07540064 67.23461956 0.09298177 77.31079102 0.11352539 C77.31079102 10.34352539 77.31079102 20.57352539 77.31079102 31.11352539 C74.83426025 31.12287109 72.35772949 31.1322168 69.80615234 31.1418457 C61.57982964 31.17576887 53.35375374 31.23140206 45.12762928 31.29742813 C40.14513232 31.33676444 35.16280843 31.36902037 30.18017578 31.38452148 C25.3623819 31.39977986 20.54506429 31.43438606 15.72748375 31.48183441 C13.89894462 31.4965542 12.07033745 31.50456094 10.24173927 31.50540924 C-3.63666458 31.51831038 -17.03678917 32.00195692 -27.68920898 42.11352539 C-28.3040918 42.68844727 -28.91897461 43.26336914 -29.55249023 43.85571289 C-36.91897158 51.45880498 -40.15117009 60.20149013 -40.25170898 70.67602539 C-40.02009479 82.53676586 -36.25328817 91.71158884 -27.68920898 100.11352539 C-18.95886221 106.77726834 -9.78075937 109.57597068 1.09057617 109.49829102 C2.02364594 109.50366379 2.9567157 109.50903656 3.9180603 109.51457214 C5.9297136 109.52429981 7.9414086 109.52730958 9.95308304 109.5242157 C13.15059339 109.51970379 16.34756006 109.53383547 19.54501343 109.5526123 C26.34193059 109.58926865 33.13878963 109.60307068 39.93579102 109.61352539 C47.79873674 109.62566086 55.66141572 109.64751432 63.5242424 109.69352722 C66.64978705 109.70695294 69.77498179 109.70295218 72.90054321 109.69812012 C86.55115691 109.73566451 100.28858358 110.07443189 112.56079102 116.80102539 C113.22353027 117.15132813 113.88626953 117.50163086 114.5690918 117.86254883 C132.95301882 127.81401308 145.07772371 142.75920102 151.31079102 162.67602539 C155.49686372 182.70351049 152.29206971 202.90205184 141.31079102 220.11352539 C129.90471231 236.50103438 114.19100395 246.65121837 94.69904137 250.64922237 C90.49374464 251.22548793 86.40024284 251.24836955 82.1612854 251.23377991 C81.24961023 251.23463433 80.33793505 251.23548876 79.39863336 251.23636907 C76.34931294 251.23801381 73.30004776 251.23251896 70.25073242 251.22705078 C68.06268312 251.22676867 65.87463372 251.22692712 63.68658447 251.22749329 C57.74910431 251.22778031 51.81164434 251.22189883 45.87416887 251.21491933 C39.66817864 251.20867008 33.46218796 251.20808074 27.25619507 251.20689392 C16.17343773 251.20396199 5.09068874 251.19673961 -5.99206479 251.1872512 C-16.0514314 251.17868465 -26.11079653 251.17244089 -36.17016602 251.16845703 C-36.83170269 251.16819431 -37.49323937 251.16793158 -38.17482261 251.1676609 C-41.49366261 251.16635583 -44.81250263 251.16509439 -48.13134265 251.163849 C-75.65063676 251.15339511 -103.16992196 251.1356033 -130.68920898 251.11352539 C-130.68920898 240.88352539 -130.68920898 230.65352539 -130.68920898 220.11352539 C-127.96776642 220.10765915 -125.24632385 220.10179291 -122.44241333 220.0957489 C-96.80994049 220.03908246 -71.17755197 219.96600291 -45.54516792 219.87781048 C-32.36695277 219.83286321 -19.18876458 219.79344599 -6.01049805 219.76708984 C5.47694864 219.74410121 16.96430994 219.71069333 28.45168889 219.66482383 C34.53299989 219.64090348 40.61422638 219.62216684 46.69558334 219.61591148 C52.42308703 219.60985538 58.1503745 219.58983605 63.87779808 219.55924988 C65.97635712 219.55047817 68.07494442 219.54674527 70.17352104 219.54851723 C73.04731483 219.55017716 75.92045509 219.53340934 78.79415894 219.51225281 C79.6171482 219.51710038 80.44013746 219.52194796 81.28806579 219.52694243 C92.57761688 219.39055557 103.03869654 215.2532972 111.16235352 207.30102539 C118.40925171 198.38176608 121.31839766 188.30935828 120.72875977 176.95336914 C119.48424834 165.52014734 114.03257117 156.60333879 105.15844727 149.42602539 C96.71198316 143.42600015 87.82770463 141.80953843 77.66040039 141.8581543 C76.72908295 141.85453384 75.7977655 141.85091339 74.83822632 141.84718323 C72.82709223 141.84032137 70.81593965 141.83777773 68.80479431 141.8391304 C65.60716379 141.84010229 62.40986337 141.82707261 59.21228027 141.81015015 C50.12437521 141.76409604 41.03650419 141.73930859 31.94848633 141.73266602 C26.37588897 141.72761259 20.80363563 141.70316723 15.2311554 141.66733932 C13.12317483 141.65762681 11.01514642 141.65516194 8.90715027 141.66051102 C-15.07581985 141.71848717 -35.43062404 137.22324609 -53.09155273 119.73461914 C-67.95008984 103.93660714 -72.23051735 86.34422431 -71.96264648 65.22680664 C-71.42690699 47.9266646 -63.73174385 32.43016955 -51.68920898 20.11352539 C-37.0071235 6.71678931 -19.90022229 -0.09184481 0 0 Z " fill="#FEBE00" transform="translate(282.689208984375,228.886474609375)"/>
<path d="M0 0 C17.65383339 1.17692223 17.65383339 1.17692223 24.4375 3.0625 C25.6279895 3.38903564 25.6279895 3.38903564 26.8425293 3.72216797 C50.56660505 10.62087636 69.76827143 26.7866938 82.00683594 48.14990234 C87.03504845 57.51661681 90.0819881 67.56544273 92 78 C92.13148438 78.70253906 92.26296875 79.40507812 92.3984375 80.12890625 C97.7812807 114.97190481 78.5252784 148.64031954 58.90625 175.81298828 C53.53979102 183.089152 47.78550979 190.05599457 42 197 C41.24565674 197.91313965 41.24565674 197.91313965 40.47607422 198.84472656 C33.27134051 207.54935699 25.59368726 215.62785389 17.51123047 223.52124023 C14.42690841 226.53929172 11.39042604 229.60437598 8.359375 232.67578125 C7.06773438 233.98095703 7.06773438 233.98095703 5.75 235.3125 C4.87859375 236.19550781 4.0071875 237.07851563 3.109375 237.98828125 C1 240 1 240 0 240 C0 201.39 0 162.78 0 123 C3.96 122.01 7.92 121.02 12 120 C19.98930432 115.6980669 24.81656173 110.60592109 28.12890625 102.1015625 C30.32781775 94.27225428 29.87971895 86.93343817 26.4375 79.5625 C21.53829297 70.89467217 15.47202886 66.85478459 6 64 C4.02 63.67 2.04 63.34 0 63 C0 42.21 0 21.42 0 0 Z " fill="#AE2538" transform="translate(92,246)"/>
<path d="M0 0 C23.49229603 1.56615307 41.78353163 6.91938691 60 22 C60.62777344 22.46535156 61.25554687 22.93070313 61.90234375 23.41015625 C78.85338828 36.45248933 88.41340798 58.49371747 92 79 C94.50475178 116.98931106 79.53419587 148.11671964 57 178 C56.5359375 178.61568848 56.071875 179.23137695 55.59375 179.86572266 C48.75058254 188.87411106 41.47084679 197.50819703 34 206 C33.18660156 206.92683594 32.37320313 207.85367188 31.53515625 208.80859375 C25.68319146 215.32618487 19.55525024 221.57046796 13.38742065 227.78781128 C12.42250138 228.76089493 11.459054 229.73544038 10.49710083 230.7114563 C9.13745242 232.0889017 7.77004776 233.4586779 6.40234375 234.828125 C5.60304443 235.6315332 4.80374512 236.43494141 3.98022461 237.26269531 C2 239 2 239 0 239 C0 200.72 0 162.44 0 123 C3.96 122.01 7.92 121.02 12 120 C19.6394134 115.88646971 24.52726034 111.12809394 27.80859375 102.99609375 C30.48339904 93.86486191 29.49088781 85.3362105 25 77 C21.13585126 70.79321109 15.79836391 67.48312334 9 65 C6.03 64.34 3.06 63.68 0 63 C0 42.21 0 21.42 0 0 Z " fill="#AE2538" transform="translate(420,26)"/>
<path d="M0 0 C7.01860645 4.63337691 12.18274118 11.73973263 14 20 C14.89634059 29.18749102 13.27293664 37.2825828 7.8125 44.8125 C2.47325797 51.18805061 -4.34543032 55.47267284 -12.72265625 56.25390625 C-22.5917083 56.64068326 -29.52215861 53.76837688 -37.2109375 47.703125 C-43.34386397 41.86479325 -46.0455295 34.58241511 -46.375 26.25 C-46.20696434 17.77470134 -43.50964818 10.74833542 -37.703125 4.53125 C-26.89777578 -5.18365113 -12.81087838 -7.16163687 0 0 Z " fill="#CCE2FC" transform="translate(436,93)"/>
<path d="M0 0 C6.7357477 5.21765305 11.02775905 12.47873067 12.3203125 20.91015625 C12.64831397 30.18166448 10.43854693 37.62277763 4.6875 44.91015625 C-0.05290769 49.97890386 -7.34159807 54.14280625 -14.3515625 54.80078125 C-23.96221397 54.98384128 -31.85148536 52.64112623 -38.96875 45.9140625 C-44.5619442 40.02461861 -48.27584462 33.34645221 -48.625 25.09765625 C-48.15063115 16.42129694 -45.34578298 8.8092577 -39.1875 2.59765625 C-27.11352494 -7.13942041 -13.24583064 -8.49152357 0 0 Z " fill="#CCE3FC" transform="translate(110.1875,314.40234375)"/>
<path d="M0 0 C0 19.14 0 38.28 0 58 C-10.53010984 58 -15.50517427 56.32827405 -23 49 C-29.1050381 40.83176342 -31.0256211 33.16646918 -30 23 C-27.5956741 13.36903546 -22.29652902 7.01918025 -13.9296875 1.9453125 C-9.03293451 -0.45350172 -5.88767941 0 0 0 Z " fill="#ECF4FA" transform="translate(420,90)"/>
<path d="M0 0 C0 19.14 0 38.28 0 58 C-10.16718685 58 -14.57782328 56.41312697 -21.8125 49.6875 C-27.7818588 43.34419065 -30.35247369 36.11564794 -30.2109375 27.49609375 C-29.53608574 19.51034793 -26.67083095 12.69522162 -21 7 C-13.62041469 1.20986383 -9.82888699 0 0 0 Z " fill="#ECF4FA" transform="translate(92,310)"/>
</svg>
